<?xml version="1.0" encoding="UTF-8" standalone="no"?>
<svg width="100" height="100" viewBox="0 0 100 100" xmlns="http://www.w3.org/2000/svg">
  <g id="resource-rare">
    <!-- Exotic Minerals -->
    <g id="exotic-minerals" transform="translate(25, 25)">
      <!-- Multicolor exotic mineral -->
      <circle cx="0" cy="0" r="15" fill="#332255" stroke="#553377" stroke-width="1.5" />
      <circle cx="0" cy="0" r="10" fill="#553377" stroke="#553377" stroke-width="0.5" />
      <circle cx="0" cy="0" r="5" fill="#774499" stroke="#553377" stroke-width="0.5" />
      
      <!-- Star-like gleam patterns -->
      <path d="M -15 0 L 15 0" stroke="#9966CC" stroke-width="1" />
      <path d="M 0 -15 L 0 15" stroke="#9966CC" stroke-width="1" />
      <path d="M -10 -10 L 10 10" stroke="#9966CC" stroke-width="0.75" />
      <path d="M -10 10 L 10 -10" stroke="#9966CC" stroke-width="0.75" />
      
      <text x="0" y="0" font-family="Courier New" font-size="8" fill="#FFFFFF" text-anchor="middle" dominant-baseline="middle">EM</text>
    </g>

    <!-- Energy Crystals -->
    <g id="energy-crystals" transform="translate(75, 75)">
      <!-- Glowing energy crystal -->
      <path d="M 0 -15 L 10 -5 L 5 10 L -5 10 L -10 -5 Z" 
            fill="#FF5500" stroke="#FF8800" stroke-width="1.5" />
      
      <!-- Inner glow -->
      <path d="M 0 -10 L 7 -3 L 3 7 L -3 7 L -7 -3 Z" 
            fill="#FFAA00" stroke="none" />
      
      <!-- Energy lines -->
      <path d="M -15 0 L 15 0" stroke="#FFCC00" stroke-width="0.75" />
      <path d="M 0 -15 L 0 15" stroke="#FFCC00" stroke-width="0.75" />
      <path d="M -10 -10 L 10 10" stroke="#FFCC00" stroke-width="0.5" />
      <path d="M -10 10 L 10 -10" stroke="#FFCC00" stroke-width="0.5" />
      
      <text x="0" y="0" font-family="Courier New" font-size="8" fill="#FFFFFF" text-anchor="middle" dominant-baseline="middle">EC</text>
    </g>
  </g>
</svg> 