<?xml version="1.0" encoding="UTF-8" standalone="no"?>
<svg width="100" height="100" viewBox="0 0 100 100" xmlns="http://www.w3.org/2000/svg">
  <g id="resource-uncommon">
    <!-- Titanium Fragments -->
    <g id="titanium-fragments" transform="translate(25, 25)">
      <path d="M -12 -5 L -5 -12 L 5 -12 L 12 -5 L 12 5 L 5 12 L -5 12 L -12 5 Z" 
            fill="#A0A0A0" stroke="#787878" stroke-width="1.5" />
      <path d="M -6 -3 L -3 -6 L 3 -6 L 6 -3 L 6 3 L 3 6 L -3 6 L -6 3 Z" 
            fill="#C0C0C0" stroke="#787878" stroke-width="0.75" />
      <text x="0" y="0" font-family="Courier New" font-size="8" fill="#505050" text-anchor="middle" dominant-baseline="middle">Ti</text>
    </g>

    <!-- Quartz Crystals -->
    <g id="quartz-crystals" transform="translate(75, 75)">
      <!-- Base crystal shape -->
      <path d="M 0 -15 L 8 -5 L 8 10 L 0 15 L -8 10 L -8 -5 Z" 
            fill="#E0E8FF" stroke="#A0A0FF" stroke-width="1" />
      <!-- Crystal facets -->
      <path d="M 0 -15 L 0 15" stroke="#C0C0FF" stroke-width="0.75" />
      <path d="M -8 -5 L 8 -5" stroke="#C0C0FF" stroke-width="0.75" />
      <path d="M -8 10 L 8 10" stroke="#C0C0FF" stroke-width="0.75" />
      <text x="0" y="0" font-family="Courier New" font-size="8" fill="#6060A0" text-anchor="middle" dominant-baseline="middle">Qz</text>
    </g>
  </g>
</svg> 