<?xml version="1.0" encoding="UTF-8" standalone="no"?>
<svg width="200" height="200" viewBox="0 0 200 200" xmlns="http://www.w3.org/2000/svg">
  <defs>
    <!-- Радиальный градиент для взрыва -->
    <radialGradient id="explosionGradient" cx="50%" cy="50%" r="50%" fx="50%" fy="50%">
      <stop offset="0%" style="stop-color:#FFFFFF;stop-opacity:1" />
      <stop offset="20%" style="stop-color:#FFDD22;stop-opacity:0.9" />
      <stop offset="40%" style="stop-color:#FF8800;stop-opacity:0.7" />
      <stop offset="60%" style="stop-color:#FF4400;stop-opacity:0.5" />
      <stop offset="80%" style="stop-color:#CC0000;stop-opacity:0.3" />
      <stop offset="100%" style="stop-color:#000000;stop-opacity:0" />
    </radialGradient>
  </defs>
  
  <g id="asteroidExplosion" transform="translate(100, 100)">
    <!-- Центральная вспышка -->
    <circle cx="0" cy="0" r="50" fill="url(#explosionGradient)" />
    
    <!-- Внутренние частицы взрыва -->
    <g id="innerParticles">
      <path d="M 0 0 L 30 20 L 35 25" stroke="#FFCC00" stroke-width="2" />
      <path d="M 0 0 L -25 30 L -30 40" stroke="#FFCC00" stroke-width="2" />
      <path d="M 0 0 L 15 -35 L 20 -45" stroke="#FFCC00" stroke-width="2" />
      <path d="M 0 0 L -20 -20 L -25 -25" stroke="#FFCC00" stroke-width="2" />
      <path d="M 0 0 L 40 -10 L 50 -12" stroke="#FFCC00" stroke-width="2" />
      <path d="M 0 0 L -30 -35 L -38 -42" stroke="#FFCC00" stroke-width="2" />
      <path d="M 0 0 L -40 10 L -50 12" stroke="#FFCC00" stroke-width="2" />
      <path d="M 0 0 L 10 40 L 12 50" stroke="#FFCC00" stroke-width="2" />
    </g>
    
    <!-- Обломки и частицы -->
    <g id="debris">
      <path d="M 20 25 L 25 30 L 22 35 Z" fill="#AA5500" />
      <path d="M -30 10 L -25 15 L -35 20 Z" fill="#AA5500" />
      <path d="M 10 -30 L 15 -25 L 5 -20 Z" fill="#AA5500" />
      <path d="M -15 -25 L -10 -20 L -15 -15 Z" fill="#AA5500" />
      
      <circle cx="45" cy="5" r="3" fill="#CC7700" />
      <circle cx="-40" cy="-20" r="4" fill="#CC7700" />
      <circle cx="15" cy="45" r="2" fill="#CC7700" />
      <circle cx="-5" cy="-45" r="3" fill="#CC7700" />
      
      <!-- Мелкие обломки -->
      <circle cx="60" cy="20" r="1" fill="#FFAA00" />
      <circle cx="-55" cy="30" r="1" fill="#FFAA00" />
      <circle cx="35" cy="-50" r="1" fill="#FFAA00" />
      <circle cx="-40" cy="-45" r="1" fill="#FFAA00" />
      <circle cx="58" cy="-25" r="1" fill="#FFAA00" />
      <circle cx="-25" cy="58" r="1" fill="#FFAA00" />
    </g>
    
    <!-- Внешние круги расходящейся взрывной волны -->
    <circle cx="0" cy="0" r="70" fill="none" stroke="#FF8800" stroke-width="2" stroke-opacity="0.3" />
    <circle cx="0" cy="0" r="85" fill="none" stroke="#FF4400" stroke-width="1.5" stroke-opacity="0.2" />
    <circle cx="0" cy="0" r="95" fill="none" stroke="#FF0000" stroke-width="1" stroke-opacity="0.1" />
  </g>
</svg> 