<svg width="300" height="200" viewBox="0 0 300 200" fill="none" xmlns="http://www.w3.org/2000/svg">
<path opacity="0.2" d="M120 81.1998C120.663 81.1998 121.2 80.6625 121.2 79.9998C121.2 79.3371 120.663 78.7998 120 78.7998C119.337 78.7998 118.8 79.3371 118.8 79.9998C118.8 80.6625 119.337 81.1998 120 81.1998Z" fill="#E8EFFF"/>
<path opacity="0.2" d="M135 96C135.552 96 136 95.5523 136 95C136 94.4477 135.552 94 135 94C134.448 94 134 94.4477 134 95C134 95.5523 134.448 96 135 96Z" fill="#E8EFFF"/>
<path opacity="0.2" d="M165 76.5C165.828 76.5 166.5 75.8284 166.5 75C166.5 74.1716 165.828 73.5 165 73.5C164.172 73.5 163.5 74.1716 163.5 75C163.5 75.8284 164.172 76.5 165 76.5Z" fill="#E8EFFF"/>
<path opacity="0.2" d="M190 111.3C190.718 111.3 191.3 110.718 191.3 110C191.3 109.282 190.718 108.7 190 108.7C189.282 108.7 188.7 109.282 188.7 110C188.7 110.718 189.282 111.3 190 111.3Z" fill="#E8EFFF"/>
<path opacity="0.2" d="M155 131.1C155.607 131.1 156.1 130.607 156.1 130C156.1 129.392 155.607 128.9 155 128.9C154.392 128.9 153.9 129.392 153.9 130C153.9 130.607 154.392 131.1 155 131.1Z" fill="#E8EFFF"/>
<path opacity="0.2" d="M110 121.4C110.773 121.4 111.4 120.773 111.4 120C111.4 119.227 110.773 118.6 110 118.6C109.227 118.6 108.6 119.227 108.6 120C108.6 120.773 109.227 121.4 110 121.4Z" fill="#E8EFFF"/>
<path opacity="0.2" d="M200 86.1998C200.663 86.1998 201.2 85.6625 201.2 84.9998C201.2 84.3371 200.663 83.7998 200 83.7998C199.337 83.7998 198.8 84.3371 198.8 84.9998C198.8 85.6625 199.337 86.1998 200 86.1998Z" fill="#E8EFFF"/>
<path opacity="0.2" d="M125 66C125.552 66 126 65.5523 126 65C126 64.4477 125.552 64 125 64C124.448 64 124 64.4477 124 65C124 65.5523 124.448 66 125 66Z" fill="#E8EFFF"/>
<path opacity="0.2" d="M89.9999 106.1C90.6074 106.1 91.0999 105.607 91.0999 105C91.0999 104.392 90.6074 103.9 89.9999 103.9C89.3924 103.9 88.8999 104.392 88.8999 105C88.8999 105.607 89.3924 106.1 89.9999 106.1Z" fill="#E8EFFF"/>
<path opacity="0.2" d="M180 101.3C180.718 101.3 181.3 100.718 181.3 100C181.3 99.2822 180.718 98.7002 180 98.7002C179.282 98.7002 178.7 99.2822 178.7 100C178.7 100.718 179.282 101.3 180 101.3Z" fill="#E8EFFF"/>
<path opacity="0.2" d="M140 111.2C140.663 111.2 141.2 110.663 141.2 110C141.2 109.337 140.663 108.8 140 108.8C139.337 108.8 138.8 109.337 138.8 110C138.8 110.663 139.337 111.2 140 111.2Z" fill="#E8EFFF"/>
<path opacity="0.2" d="M80 81C80.5523 81 81 80.5523 81 80C81 79.4477 80.5523 79 80 79C79.4477 79 79 79.4477 79 80C79 80.5523 79.4477 81 80 81Z" fill="#E8EFFF"/>
<path opacity="0.2" d="M210 121.5C210.828 121.5 211.5 120.828 211.5 120C211.5 119.172 210.828 118.5 210 118.5C209.172 118.5 208.5 119.172 208.5 120C208.5 120.828 209.172 121.5 210 121.5Z" fill="#E8EFFF"/>
<path opacity="0.2" d="M150 61.1998C150.663 61.1998 151.2 60.6625 151.2 59.9998C151.2 59.3371 150.663 58.7998 150 58.7998C149.337 58.7998 148.8 59.3371 148.8 59.9998C148.8 60.6625 149.337 61.1998 150 61.1998Z" fill="#E8EFFF"/>
<path opacity="0.2" d="M105 146.1C105.607 146.1 106.1 145.607 106.1 145C106.1 144.392 105.607 143.9 105 143.9C104.392 143.9 103.9 144.392 103.9 145C103.9 145.607 104.392 146.1 105 146.1Z" fill="#E8EFFF"/>
<path opacity="0.2" d="M175 71.4001C175.773 71.4001 176.4 70.7733 176.4 70.0001C176.4 69.2269 175.773 68.6001 175 68.6001C174.227 68.6001 173.6 69.2269 173.6 70.0001C173.6 70.7733 174.227 71.4001 175 71.4001Z" fill="#E8EFFF"/>
<path opacity="0.2" d="M220 91.1998C220.663 91.1998 221.2 90.6625 221.2 89.9998C221.2 89.3371 220.663 88.7998 220 88.7998C219.337 88.7998 218.8 89.3371 218.8 89.9998C218.8 90.6625 219.337 91.1998 220 91.1998Z" fill="#E8EFFF"/>
<path opacity="0.2" d="M130 131C130.552 131 131 130.552 131 130C131 129.448 130.552 129 130 129C129.448 129 129 129.448 129 130C129 130.552 129.448 131 130 131Z" fill="#E8EFFF"/>
<path opacity="0.2" d="M195 131.3C195.718 131.3 196.3 130.718 196.3 130C196.3 129.282 195.718 128.7 195 128.7C194.282 128.7 193.7 129.282 193.7 130C193.7 130.718 194.282 131.3 195 131.3Z" fill="#E8EFFF"/>
<path opacity="0.2" d="M99.9998 91.1998C100.663 91.1998 101.2 90.6625 101.2 89.9998C101.2 89.3371 100.663 88.7998 99.9998 88.7998C99.3371 88.7998 98.7998 89.3371 98.7998 89.9998C98.7998 90.6625 99.3371 91.1998 99.9998 91.1998Z" fill="#E8EFFF"/>
<path opacity="0.2" d="M145 151.1C145.607 151.1 146.1 150.607 146.1 150C146.1 149.392 145.607 148.9 145 148.9C144.392 148.9 143.9 149.392 143.9 150C143.9 150.607 144.392 151.1 145 151.1Z" fill="#E8EFFF"/>
<path opacity="0.2" d="M170 116C170.552 116 171 115.552 171 115C171 114.448 170.552 114 170 114C169.448 114 169 114.448 169 115C169 115.552 169.448 116 170 116Z" fill="#E8EFFF"/>
<path opacity="0.2" d="M75.0001 101.4C75.7733 101.4 76.4001 100.773 76.4001 100C76.4001 99.2269 75.7733 98.6001 75.0001 98.6001C74.2269 98.6001 73.6001 99.2269 73.6001 100C73.6001 100.773 74.2269 101.4 75.0001 101.4Z" fill="#E8EFFF"/>
<path opacity="0.2" d="M185 76.1998C185.663 76.1998 186.2 75.6625 186.2 74.9998C186.2 74.3371 185.663 73.7998 185 73.7998C184.337 73.7998 183.8 74.3371 183.8 74.9998C183.8 75.6625 184.337 76.1998 185 76.1998Z" fill="#E8EFFF"/>
<path opacity="0.2" d="M120 136.3C120.718 136.3 121.3 135.718 121.3 135C121.3 134.282 120.718 133.7 120 133.7C119.282 133.7 118.7 134.282 118.7 135C118.7 135.718 119.282 136.3 120 136.3Z" fill="#E8EFFF"/>
<path opacity="0.2" d="M205 106.1C205.607 106.1 206.1 105.607 206.1 105C206.1 104.392 205.607 103.9 205 103.9C204.392 103.9 203.9 104.392 203.9 105C203.9 105.607 204.392 106.1 205 106.1Z" fill="#E8EFFF"/>
<path opacity="0.2" d="M160 156C160.552 156 161 155.552 161 155C161 154.448 160.552 154 160 154C159.448 154 159 154.448 159 155C159 155.552 159.448 156 160 156Z" fill="#E8EFFF"/>
<path opacity="0.2" d="M95 61.5C95.8284 61.5 96.5 60.8284 96.5 60C96.5 59.1716 95.8284 58.5 95 58.5C94.1716 58.5 93.5 59.1716 93.5 60C93.5 60.8284 94.1716 61.5 95 61.5Z" fill="#E8EFFF"/>
<path opacity="0.2" d="M215 151.2C215.663 151.2 216.2 150.663 216.2 150C216.2 149.337 215.663 148.8 215 148.8C214.337 148.8 213.8 149.337 213.8 150C213.8 150.663 214.337 151.2 215 151.2Z" fill="#E8EFFF"/>
<path opacity="0.2" d="M135 71.0999C135.607 71.0999 136.1 70.6074 136.1 69.9999C136.1 69.3924 135.607 68.8999 135 68.8999C134.392 68.8999 133.9 69.3924 133.9 69.9999C133.9 70.6074 134.392 71.0999 135 71.0999Z" fill="#E8EFFF"/>
<path opacity="0.2" d="M150 92.5C151.381 92.5 152.5 91.3807 152.5 90C152.5 88.6193 151.381 87.5 150 87.5C148.619 87.5 147.5 88.6193 147.5 90C147.5 91.3807 148.619 92.5 150 92.5Z" fill="white"/>
<path opacity="0.2" d="M150 96C153.314 96 156 93.3137 156 90C156 86.6863 153.314 84 150 84C146.686 84 144 86.6863 144 90C144 93.3137 146.686 96 150 96Z" fill="url(#paint0_radial_15423_35814)"/>
<path opacity="0.2" d="M180 122C181.105 122 182 121.105 182 120C182 118.895 181.105 118 180 118C178.895 118 178 118.895 178 120C178 121.105 178.895 122 180 122Z" fill="white"/>
<path opacity="0.2" d="M180 125C182.761 125 185 122.761 185 120C185 117.239 182.761 115 180 115C177.239 115 175 117.239 175 120C175 122.761 177.239 125 180 125Z" fill="url(#paint1_radial_15423_35814)"/>
<path opacity="0.2" d="M120 112.2C121.215 112.2 122.2 111.215 122.2 110C122.2 108.785 121.215 107.8 120 107.8C118.785 107.8 117.8 108.785 117.8 110C117.8 111.215 118.785 112.2 120 112.2Z" fill="white"/>
<path opacity="0.2" d="M120 115.5C123.038 115.5 125.5 113.038 125.5 110C125.5 106.962 123.038 104.5 120 104.5C116.962 104.5 114.5 106.962 114.5 110C114.5 113.038 116.962 115.5 120 115.5Z" fill="url(#paint2_radial_15423_35814)"/>
<path opacity="0.2" d="M90.0002 71.8002C90.9943 71.8002 91.8002 70.9943 91.8002 70.0002C91.8002 69.0061 90.9943 68.2002 90.0002 68.2002C89.0061 68.2002 88.2002 69.0061 88.2002 70.0002C88.2002 70.9943 89.0061 71.8002 90.0002 71.8002Z" fill="white"/>
<path opacity="0.2" d="M90 74.5C92.4853 74.5 94.5 72.4853 94.5 70C94.5 67.5147 92.4853 65.5 90 65.5C87.5147 65.5 85.5 67.5147 85.5 70C85.5 72.4853 87.5147 74.5 90 74.5Z" fill="url(#paint3_radial_15423_35814)"/>
<path opacity="0.2" d="M220 112.1C221.16 112.1 222.1 111.16 222.1 110C222.1 108.84 221.16 107.9 220 107.9C218.84 107.9 217.9 108.84 217.9 110C217.9 111.16 218.84 112.1 220 112.1Z" fill="white"/>
<path opacity="0.2" d="M220 115C222.761 115 225 112.761 225 110C225 107.239 222.761 105 220 105C217.239 105 215 107.239 215 110C215 112.761 217.239 115 220 115Z" fill="url(#paint4_radial_15423_35814)"/>
<defs>
<radialGradient id="paint0_radial_15423_35814" cx="0" cy="0" r="1" gradientUnits="userSpaceOnUse" gradientTransform="translate(744 684) scale(600)">
<stop stop-color="#B8C7FF" stop-opacity="0.6"/>
<stop offset="1" stop-color="#B8C7FF" stop-opacity="0"/>
</radialGradient>
<radialGradient id="paint1_radial_15423_35814" cx="0" cy="0" r="1" gradientUnits="userSpaceOnUse" gradientTransform="translate(675 615) scale(500)">
<stop stop-color="#B8C7FF" stop-opacity="0.6"/>
<stop offset="1" stop-color="#B8C7FF" stop-opacity="0"/>
</radialGradient>
<radialGradient id="paint2_radial_15423_35814" cx="0" cy="0" r="1" gradientUnits="userSpaceOnUse" gradientTransform="translate(664.5 654.5) scale(550)">
<stop stop-color="#B8C7FF" stop-opacity="0.6"/>
<stop offset="1" stop-color="#B8C7FF" stop-opacity="0"/>
</radialGradient>
<radialGradient id="paint3_radial_15423_35814" cx="0" cy="0" r="1" gradientUnits="userSpaceOnUse" gradientTransform="translate(535.5 515.5) scale(450)">
<stop stop-color="#B8C7FF" stop-opacity="0.6"/>
<stop offset="1" stop-color="#B8C7FF" stop-opacity="0"/>
</radialGradient>
<radialGradient id="paint4_radial_15423_35814" cx="0" cy="0" r="1" gradientUnits="userSpaceOnUse" gradientTransform="translate(715 605) scale(500)">
<stop stop-color="#B8C7FF" stop-opacity="0.6"/>
<stop offset="1" stop-color="#B8C7FF" stop-opacity="0"/>
</radialGradient>
</defs>
</svg>
