<svg width="500" height="300" viewBox="0 0 500 300" fill="none" xmlns="http://www.w3.org/2000/svg">
<path opacity="0.2" d="M140 101.2C140.663 101.2 141.2 100.663 141.2 99.9998C141.2 99.3371 140.663 98.7998 140 98.7998C139.337 98.7998 138.8 99.3371 138.8 99.9998C138.8 100.663 139.337 101.2 140 101.2Z" fill="#FFFAF0"/>
<path opacity="0.2" d="M165 121C165.552 121 166 120.552 166 120C166 119.448 165.552 119 165 119C164.448 119 164 119.448 164 120C164 120.552 164.448 121 165 121Z" fill="#FFCC99"/>
<path opacity="0.2" d="M190 141.5C190.828 141.5 191.5 140.828 191.5 140C191.5 139.172 190.828 138.5 190 138.5C189.172 138.5 188.5 139.172 188.5 140C188.5 140.828 189.172 141.5 190 141.5Z" fill="#FFFAF0"/>
<path opacity="0.2" d="M215 161.3C215.718 161.3 216.3 160.718 216.3 160C216.3 159.282 215.718 158.7 215 158.7C214.282 158.7 213.7 159.282 213.7 160C213.7 160.718 214.282 161.3 215 161.3Z" fill="#FFCC99"/>
<path opacity="0.2" d="M240 116.1C240.607 116.1 241.1 115.608 241.1 115C241.1 114.393 240.607 113.9 240 113.9C239.392 113.9 238.9 114.393 238.9 115C238.9 115.608 239.392 116.1 240 116.1Z" fill="#FFFAF0"/>
<path opacity="0.2" d="M265 136.4C265.773 136.4 266.4 135.773 266.4 135C266.4 134.226 265.773 133.6 265 133.6C264.227 133.6 263.6 134.226 263.6 135C263.6 135.773 264.227 136.4 265 136.4Z" fill="#FFCC99"/>
<path opacity="0.2" d="M290 156.2C290.663 156.2 291.2 155.663 291.2 155C291.2 154.337 290.663 153.8 290 153.8C289.337 153.8 288.8 154.337 288.8 155C288.8 155.663 289.337 156.2 290 156.2Z" fill="#FFFAF0"/>
<path opacity="0.2" d="M315 111C315.552 111 316 110.552 316 110C316 109.448 315.552 109 315 109C314.448 109 314 109.448 314 110C314 110.552 314.448 111 315 111Z" fill="#FFCC99"/>
<path opacity="0.2" d="M340 131.3C340.718 131.3 341.3 130.718 341.3 130C341.3 129.282 340.718 128.7 340 128.7C339.282 128.7 338.7 129.282 338.7 130C338.7 130.718 339.282 131.3 340 131.3Z" fill="#FFFAF0"/>
<path opacity="0.2" d="M365 151.1C365.607 151.1 366.1 150.608 366.1 150C366.1 149.393 365.607 148.9 365 148.9C364.392 148.9 363.9 149.393 363.9 150C363.9 150.608 364.392 151.1 365 151.1Z" fill="#FFCC99"/>
<path opacity="0.2" d="M145 171.4C145.773 171.4 146.4 170.773 146.4 170C146.4 169.226 145.773 168.6 145 168.6C144.227 168.6 143.6 169.226 143.6 170C143.6 170.773 144.227 171.4 145 171.4Z" fill="#FFFAF0"/>
<path opacity="0.2" d="M170 126.2C170.663 126.2 171.2 125.663 171.2 125C171.2 124.337 170.663 123.8 170 123.8C169.337 123.8 168.8 124.337 168.8 125C168.8 125.663 169.337 126.2 170 126.2Z" fill="#FFCC99"/>
<path opacity="0.2" d="M195 146C195.552 146 196 145.552 196 145C196 144.448 195.552 144 195 144C194.448 144 194 144.448 194 145C194 145.552 194.448 146 195 146Z" fill="#FFFAF0"/>
<path opacity="0.2" d="M220 106.5C220.828 106.5 221.5 105.828 221.5 105C221.5 104.172 220.828 103.5 220 103.5C219.172 103.5 218.5 104.172 218.5 105C218.5 105.828 219.172 106.5 220 106.5Z" fill="#FFCC99"/>
<path opacity="0.2" d="M245 181.3C245.718 181.3 246.3 180.718 246.3 180C246.3 179.282 245.718 178.7 245 178.7C244.282 178.7 243.7 179.282 243.7 180C243.7 180.718 244.282 181.3 245 181.3Z" fill="#FFFAF0"/>
<path opacity="0.2" d="M270 96.1004C270.607 96.1004 271.1 95.6079 271.1 95.0004C271.1 94.3929 270.607 93.9004 270 93.9004C269.392 93.9004 268.9 94.3929 268.9 95.0004C268.9 95.6079 269.392 96.1004 270 96.1004Z" fill="#FFCC99"/>
<path opacity="0.2" d="M295 176.4C295.773 176.4 296.4 175.773 296.4 175C296.4 174.226 295.773 173.6 295 173.6C294.227 173.6 293.6 174.226 293.6 175C293.6 175.773 294.227 176.4 295 176.4Z" fill="#FFFAF0"/>
<path opacity="0.2" d="M320 91.1998C320.663 91.1998 321.2 90.6625 321.2 89.9998C321.2 89.3371 320.663 88.7998 320 88.7998C319.337 88.7998 318.8 89.3371 318.8 89.9998C318.8 90.6625 319.337 91.1998 320 91.1998Z" fill="#FFCC99"/>
<path opacity="0.2" d="M345 166C345.552 166 346 165.552 346 165C346 164.448 345.552 164 345 164C344.448 164 344 164.448 344 165C344 165.552 344.448 166 345 166Z" fill="#FFFAF0"/>
<path opacity="0.2" d="M370 86.3002C370.718 86.3002 371.3 85.7182 371.3 85.0002C371.3 84.2822 370.718 83.7002 370 83.7002C369.282 83.7002 368.7 84.2822 368.7 85.0002C368.7 85.7182 369.282 86.3002 370 86.3002Z" fill="#FFCC99"/>
<path opacity="0.2" d="M150 161.1C150.607 161.1 151.1 160.608 151.1 160C151.1 159.393 150.607 158.9 150 158.9C149.392 158.9 148.9 159.393 148.9 160C148.9 160.608 149.392 161.1 150 161.1Z" fill="#FFFAF0"/>
<path opacity="0.2" d="M175 81.3996C175.773 81.3996 176.4 80.7728 176.4 79.9996C176.4 79.2264 175.773 78.5996 175 78.5996C174.227 78.5996 173.6 79.2264 173.6 79.9996C173.6 80.7728 174.227 81.3996 175 81.3996Z" fill="#FFCC99"/>
<path opacity="0.2" d="M200 156.2C200.663 156.2 201.2 155.663 201.2 155C201.2 154.337 200.663 153.8 200 153.8C199.337 153.8 198.8 154.337 198.8 155C198.8 155.663 199.337 156.2 200 156.2Z" fill="#FFFAF0"/>
<path opacity="0.2" d="M225 76C225.552 76 226 75.5523 226 75C226 74.4477 225.552 74 225 74C224.448 74 224 74.4477 224 75C224 75.5523 224.448 76 225 76Z" fill="#FFCC99"/>
<path opacity="0.2" d="M250 151.5C250.828 151.5 251.5 150.828 251.5 150C251.5 149.172 250.828 148.5 250 148.5C249.172 148.5 248.5 149.172 248.5 150C248.5 150.828 249.172 151.5 250 151.5Z" fill="#FFFAF0"/>
<path opacity="0.2" d="M275 71.3002C275.718 71.3002 276.3 70.7182 276.3 70.0002C276.3 69.2822 275.718 68.7002 275 68.7002C274.282 68.7002 273.7 69.2822 273.7 70.0002C273.7 70.7182 274.282 71.3002 275 71.3002Z" fill="#FFCC99"/>
<path opacity="0.2" d="M300 146.1C300.607 146.1 301.1 145.608 301.1 145C301.1 144.393 300.607 143.9 300 143.9C299.392 143.9 298.9 144.393 298.9 145C298.9 145.608 299.392 146.1 300 146.1Z" fill="#FFFAF0"/>
<path opacity="0.2" d="M325 66.3996C325.773 66.3996 326.4 65.7728 326.4 64.9996C326.4 64.2264 325.773 63.5996 325 63.5996C324.227 63.5996 323.6 64.2264 323.6 64.9996C323.6 65.7728 324.227 66.3996 325 66.3996Z" fill="#FFCC99"/>
<path opacity="0.2" d="M350 141.2C350.663 141.2 351.2 140.663 351.2 140C351.2 139.337 350.663 138.8 350 138.8C349.337 138.8 348.8 139.337 348.8 140C348.8 140.663 349.337 141.2 350 141.2Z" fill="#FFFAF0"/>
<path opacity="0.2" d="M375 61C375.552 61 376 60.5523 376 60C376 59.4477 375.552 59 375 59C374.448 59 374 59.4477 374 60C374 60.5523 374.448 61 375 61Z" fill="#FFCC99"/>
<path opacity="0.2" d="M155 136.3C155.718 136.3 156.3 135.718 156.3 135C156.3 134.282 155.718 133.7 155 133.7C154.282 133.7 153.7 134.282 153.7 135C153.7 135.718 154.282 136.3 155 136.3Z" fill="#FFFAF0"/>
<path opacity="0.2" d="M180 56.1004C180.607 56.1004 181.1 55.6079 181.1 55.0004C181.1 54.3929 180.607 53.9004 180 53.9004C179.392 53.9004 178.9 54.3929 178.9 55.0004C178.9 55.6079 179.392 56.1004 180 56.1004Z" fill="#FFCC99"/>
<path opacity="0.2" d="M205 131.4C205.773 131.4 206.4 130.773 206.4 130C206.4 129.226 205.773 128.6 205 128.6C204.227 128.6 203.6 129.226 203.6 130C203.6 130.773 204.227 131.4 205 131.4Z" fill="#FFFAF0"/>
<path opacity="0.2" d="M230 51.1998C230.663 51.1998 231.2 50.6625 231.2 49.9998C231.2 49.3371 230.663 48.7998 230 48.7998C229.337 48.7998 228.8 49.3371 228.8 49.9998C228.8 50.6625 229.337 51.1998 230 51.1998Z" fill="#FFCC99"/>
<path opacity="0.2" d="M255 126C255.552 126 256 125.552 256 125C256 124.448 255.552 124 255 124C254.448 124 254 124.448 254 125C254 125.552 254.448 126 255 126Z" fill="#FFFAF0"/>
<path opacity="0.2" d="M280 46.5C280.828 46.5 281.5 45.8284 281.5 45C281.5 44.1716 280.828 43.5 280 43.5C279.172 43.5 278.5 44.1716 278.5 45C278.5 45.8284 279.172 46.5 280 46.5Z" fill="#FFCC99"/>
<path opacity="0.2" d="M305 121.3C305.718 121.3 306.3 120.718 306.3 120C306.3 119.282 305.718 118.7 305 118.7C304.282 118.7 303.7 119.282 303.7 120C303.7 120.718 304.282 121.3 305 121.3Z" fill="#FFFAF0"/>
<path opacity="0.2" d="M330 41.1004C330.607 41.1004 331.1 40.6079 331.1 40.0004C331.1 39.3929 330.607 38.9004 330 38.9004C329.392 38.9004 328.9 39.3929 328.9 40.0004C328.9 40.6079 329.392 41.1004 330 41.1004Z" fill="#FFCC99"/>
<path opacity="0.2" d="M355 116.4C355.773 116.4 356.4 115.773 356.4 115C356.4 114.226 355.773 113.6 355 113.6C354.227 113.6 353.6 114.226 353.6 115C353.6 115.773 354.227 116.4 355 116.4Z" fill="#FFFAF0"/>
<path opacity="0.2" d="M380 36.1998C380.663 36.1998 381.2 35.6625 381.2 34.9998C381.2 34.3371 380.663 33.7998 380 33.7998C379.337 33.7998 378.8 34.3371 378.8 34.9998C378.8 35.6625 379.337 36.1998 380 36.1998Z" fill="#FFCC99"/>
<path opacity="0.2" d="M160 111C160.552 111 161 110.552 161 110C161 109.448 160.552 109 160 109C159.448 109 159 109.448 159 110C159 110.552 159.448 111 160 111Z" fill="#FFFAF0"/>
<path opacity="0.2" d="M185 186.5C185.828 186.5 186.5 185.828 186.5 185C186.5 184.172 185.828 183.5 185 183.5C184.172 183.5 183.5 184.172 183.5 185C183.5 185.828 184.172 186.5 185 186.5Z" fill="#FFCC99"/>
<path opacity="0.2" d="M210 106.3C210.718 106.3 211.3 105.718 211.3 105C211.3 104.282 210.718 103.7 210 103.7C209.282 103.7 208.7 104.282 208.7 105C208.7 105.718 209.282 106.3 210 106.3Z" fill="#FFFAF0"/>
<path opacity="0.2" d="M235 181.1C235.607 181.1 236.1 180.608 236.1 180C236.1 179.393 235.607 178.9 235 178.9C234.392 178.9 233.9 179.393 233.9 180C233.9 180.608 234.392 181.1 235 181.1Z" fill="#FFCC99"/>
<path opacity="0.2" d="M260 101.4C260.773 101.4 261.4 100.773 261.4 99.9996C261.4 99.2264 260.773 98.5996 260 98.5996C259.227 98.5996 258.6 99.2264 258.6 99.9996C258.6 100.773 259.227 101.4 260 101.4Z" fill="#FFFAF0"/>
<path opacity="0.2" d="M285 176.2C285.663 176.2 286.2 175.663 286.2 175C286.2 174.337 285.663 173.8 285 173.8C284.337 173.8 283.8 174.337 283.8 175C283.8 175.663 284.337 176.2 285 176.2Z" fill="#FFCC99"/>
<path opacity="0.2" d="M310 96C310.552 96 311 95.5523 311 95C311 94.4477 310.552 94 310 94C309.448 94 309 94.4477 309 95C309 95.5523 309.448 96 310 96Z" fill="#FFFAF0"/>
<path opacity="0.2" d="M210 133.2C211.767 133.2 213.2 131.767 213.2 130C213.2 128.232 211.767 126.8 210 126.8C208.232 126.8 206.8 128.232 206.8 130C206.8 131.767 208.232 133.2 210 133.2Z" fill="#FFCC99"/>
<path opacity="0.2" d="M210 140C215.523 140 220 135.523 220 130C220 124.477 215.523 120 210 120C204.477 120 200 124.477 200 130C200 135.523 204.477 140 210 140Z" fill="url(#paint0_radial_15423_35923)"/>
<path opacity="0.2" d="M280 162.8C281.547 162.8 282.8 161.547 282.8 160C282.8 158.454 281.547 157.2 280 157.2C278.454 157.2 277.2 158.454 277.2 160C277.2 161.547 278.454 162.8 280 162.8Z" fill="#FFCC99"/>
<path opacity="0.2" d="M280 168C284.418 168 288 164.418 288 160C288 155.582 284.418 152 280 152C275.582 152 272 155.582 272 160C272 164.418 275.582 168 280 168Z" fill="url(#paint1_radial_15423_35923)"/>
<path opacity="0.2" d="M350 123C351.657 123 353 121.657 353 120C353 118.343 351.657 117 350 117C348.343 117 347 118.343 347 120C347 121.657 348.343 123 350 123Z" fill="#FFCC99"/>
<path opacity="0.2" d="M350 129C354.971 129 359 124.971 359 120C359 115.029 354.971 111 350 111C345.029 111 341 115.029 341 120C341 124.971 345.029 129 350 129Z" fill="url(#paint2_radial_15423_35923)"/>
<path opacity="0.2" d="M170 93.5C171.933 93.5 173.5 91.933 173.5 90C173.5 88.067 171.933 86.5 170 86.5C168.067 86.5 166.5 88.067 166.5 90C166.5 91.933 168.067 93.5 170 93.5Z" fill="#99CCFF"/>
<path opacity="0.2" d="M170 102C176.627 102 182 96.6274 182 90C182 83.3726 176.627 78 170 78C163.373 78 158 83.3726 158 90C158 96.6274 163.373 102 170 102Z" fill="url(#paint3_radial_15423_35923)"/>
<path opacity="0.2" d="M210 130L220 120" stroke="#FFCC99" stroke-width="0.6"/>
<path opacity="0.2" d="M210 130L200 120" stroke="#FFCC99" stroke-width="0.6"/>
<path opacity="0.2" d="M210 130L220 140" stroke="#FFCC99" stroke-width="0.6"/>
<path opacity="0.2" d="M210 130L200 140" stroke="#FFCC99" stroke-width="0.6"/>
<path opacity="0.2" d="M170 90L180 80" stroke="#99CCFF" stroke-width="0.7"/>
<path opacity="0.2" d="M170 90L160 80" stroke="#99CCFF" stroke-width="0.7"/>
<path opacity="0.2" d="M170 90L180 100" stroke="#99CCFF" stroke-width="0.7"/>
<path opacity="0.2" d="M170 90L160 100" stroke="#99CCFF" stroke-width="0.7"/>
<defs>
<radialGradient id="paint0_radial_15423_35923" cx="0" cy="0" r="1" gradientUnits="userSpaceOnUse" gradientTransform="translate(1200 1120) scale(1000)">
<stop stop-color="#FFCC99" stop-opacity="0.8"/>
<stop offset="1" stop-color="#FFCC99" stop-opacity="0"/>
</radialGradient>
<radialGradient id="paint1_radial_15423_35923" cx="0" cy="0" r="1" gradientUnits="userSpaceOnUse" gradientTransform="translate(1072 952) scale(800)">
<stop stop-color="#FFCC99" stop-opacity="0.8"/>
<stop offset="1" stop-color="#FFCC99" stop-opacity="0"/>
</radialGradient>
<radialGradient id="paint2_radial_15423_35923" cx="0" cy="0" r="1" gradientUnits="userSpaceOnUse" gradientTransform="translate(1241 1011) scale(900)">
<stop stop-color="#FFCC99" stop-opacity="0.8"/>
<stop offset="1" stop-color="#FFCC99" stop-opacity="0"/>
</radialGradient>
<radialGradient id="paint3_radial_15423_35923" cx="0" cy="0" r="1" gradientUnits="userSpaceOnUse" gradientTransform="translate(1358 1278) scale(1200)">
<stop stop-color="#99CCFF" stop-opacity="0.8"/>
<stop offset="1" stop-color="#99CCFF" stop-opacity="0"/>
</radialGradient>
</defs>
</svg>
