<svg width="400" height="250" viewBox="0 0 400 250" fill="none" xmlns="http://www.w3.org/2000/svg">
<path opacity="0.2" d="M150 101.2C150.663 101.2 151.2 100.663 151.2 99.9998C151.2 99.3371 150.663 98.7998 150 98.7998C149.337 98.7998 148.8 99.3371 148.8 99.9998C148.8 100.663 149.337 101.2 150 101.2Z" fill="white"/>
<path opacity="0.2" d="M170 86C170.552 86 171 85.5523 171 85C171 84.4477 170.552 84 170 84C169.448 84 169 84.4477 169 85C169 85.5523 169.448 86 170 86Z" fill="white"/>
<path opacity="0.2" d="M190 111.5C190.828 111.5 191.5 110.828 191.5 110C191.5 109.172 190.828 108.5 190 108.5C189.172 108.5 188.5 109.172 188.5 110C188.5 110.828 189.172 111.5 190 111.5Z" fill="white"/>
<path opacity="0.2" d="M210 96.3002C210.718 96.3002 211.3 95.7182 211.3 95.0002C211.3 94.2822 210.718 93.7002 210 93.7002C209.282 93.7002 208.7 94.2822 208.7 95.0002C208.7 95.7182 209.282 96.3002 210 96.3002Z" fill="white"/>
<path opacity="0.2" d="M230 121.1C230.607 121.1 231.1 120.607 231.1 120C231.1 119.392 230.607 118.9 230 118.9C229.392 118.9 228.9 119.392 228.9 120C228.9 120.607 229.392 121.1 230 121.1Z" fill="white"/>
<path opacity="0.2" d="M250 106.4C250.773 106.4 251.4 105.773 251.4 105C251.4 104.227 250.773 103.6 250 103.6C249.227 103.6 248.6 104.227 248.6 105C248.6 105.773 249.227 106.4 250 106.4Z" fill="white"/>
<path opacity="0.2" d="M270 131.2C270.663 131.2 271.2 130.663 271.2 130C271.2 129.337 270.663 128.8 270 128.8C269.337 128.8 268.8 129.337 268.8 130C268.8 130.663 269.337 131.2 270 131.2Z" fill="white"/>
<path opacity="0.2" d="M290 116C290.552 116 291 115.552 291 115C291 114.448 290.552 114 290 114C289.448 114 289 114.448 289 115C289 115.552 289.448 116 290 116Z" fill="white"/>
<path opacity="0.2" d="M310 141.3C310.718 141.3 311.3 140.718 311.3 140C311.3 139.282 310.718 138.7 310 138.7C309.282 138.7 308.7 139.282 308.7 140C308.7 140.718 309.282 141.3 310 141.3Z" fill="white"/>
<path opacity="0.2" d="M140 126.1C140.607 126.1 141.1 125.607 141.1 125C141.1 124.392 140.607 123.9 140 123.9C139.392 123.9 138.9 124.392 138.9 125C138.9 125.607 139.392 126.1 140 126.1Z" fill="white"/>
<path opacity="0.2" d="M160 111.4C160.773 111.4 161.4 110.773 161.4 110C161.4 109.227 160.773 108.6 160 108.6C159.227 108.6 158.6 109.227 158.6 110C158.6 110.773 159.227 111.4 160 111.4Z" fill="white"/>
<path opacity="0.2" d="M180 136.2C180.663 136.2 181.2 135.663 181.2 135C181.2 134.337 180.663 133.8 180 133.8C179.337 133.8 178.8 134.337 178.8 135C178.8 135.663 179.337 136.2 180 136.2Z" fill="white"/>
<path opacity="0.2" d="M200 121C200.552 121 201 120.552 201 120C201 119.448 200.552 119 200 119C199.448 119 199 119.448 199 120C199 120.552 199.448 121 200 121Z" fill="white"/>
<path opacity="0.2" d="M220 146.5C220.828 146.5 221.5 145.828 221.5 145C221.5 144.172 220.828 143.5 220 143.5C219.172 143.5 218.5 144.172 218.5 145C218.5 145.828 219.172 146.5 220 146.5Z" fill="white"/>
<path opacity="0.2" d="M240 131.3C240.718 131.3 241.3 130.718 241.3 130C241.3 129.282 240.718 128.7 240 128.7C239.282 128.7 238.7 129.282 238.7 130C238.7 130.718 239.282 131.3 240 131.3Z" fill="white"/>
<path opacity="0.2" d="M260 156.1C260.607 156.1 261.1 155.607 261.1 155C261.1 154.392 260.607 153.9 260 153.9C259.392 153.9 258.9 154.392 258.9 155C258.9 155.607 259.392 156.1 260 156.1Z" fill="white"/>
<path opacity="0.2" d="M280 141.4C280.773 141.4 281.4 140.773 281.4 140C281.4 139.227 280.773 138.6 280 138.6C279.227 138.6 278.6 139.227 278.6 140C278.6 140.773 279.227 141.4 280 141.4Z" fill="white"/>
<path opacity="0.2" d="M300 166.2C300.663 166.2 301.2 165.663 301.2 165C301.2 164.337 300.663 163.8 300 163.8C299.337 163.8 298.8 164.337 298.8 165C298.8 165.663 299.337 166.2 300 166.2Z" fill="white"/>
<path opacity="0.2" d="M320 151C320.552 151 321 150.552 321 150C321 149.448 320.552 149 320 149C319.448 149 319 149.448 319 150C319 150.552 319.448 151 320 151Z" fill="white"/>
<path opacity="0.2" d="M130 131.3C130.718 131.3 131.3 130.718 131.3 130C131.3 129.282 130.718 128.7 130 128.7C129.282 128.7 128.7 129.282 128.7 130C128.7 130.718 129.282 131.3 130 131.3Z" fill="white"/>
<path opacity="0.2" d="M150 116.1C150.607 116.1 151.1 115.607 151.1 115C151.1 114.392 150.607 113.9 150 113.9C149.392 113.9 148.9 114.392 148.9 115C148.9 115.607 149.392 116.1 150 116.1Z" fill="white"/>
<path opacity="0.2" d="M170 141.4C170.773 141.4 171.4 140.773 171.4 140C171.4 139.227 170.773 138.6 170 138.6C169.227 138.6 168.6 139.227 168.6 140C168.6 140.773 169.227 141.4 170 141.4Z" fill="white"/>
<path opacity="0.2" d="M190 126.2C190.663 126.2 191.2 125.663 191.2 125C191.2 124.337 190.663 123.8 190 123.8C189.337 123.8 188.8 124.337 188.8 125C188.8 125.663 189.337 126.2 190 126.2Z" fill="white"/>
<path opacity="0.2" d="M210 151C210.552 151 211 150.552 211 150C211 149.448 210.552 149 210 149C209.448 149 209 149.448 209 150C209 150.552 209.448 151 210 151Z" fill="white"/>
<path opacity="0.2" d="M230 136.5C230.828 136.5 231.5 135.828 231.5 135C231.5 134.172 230.828 133.5 230 133.5C229.172 133.5 228.5 134.172 228.5 135C228.5 135.828 229.172 136.5 230 136.5Z" fill="white"/>
<path opacity="0.2" d="M250 161.3C250.718 161.3 251.3 160.718 251.3 160C251.3 159.282 250.718 158.7 250 158.7C249.282 158.7 248.7 159.282 248.7 160C248.7 160.718 249.282 161.3 250 161.3Z" fill="white"/>
<path opacity="0.2" d="M270 146.1C270.607 146.1 271.1 145.607 271.1 145C271.1 144.392 270.607 143.9 270 143.9C269.392 143.9 268.9 144.392 268.9 145C268.9 145.607 269.392 146.1 270 146.1Z" fill="white"/>
<path opacity="0.2" d="M290 171.4C290.773 171.4 291.4 170.773 291.4 170C291.4 169.227 290.773 168.6 290 168.6C289.227 168.6 288.6 169.227 288.6 170C288.6 170.773 289.227 171.4 290 171.4Z" fill="white"/>
<path opacity="0.2" d="M310 156.2C310.663 156.2 311.2 155.663 311.2 155C311.2 154.337 310.663 153.8 310 153.8C309.337 153.8 308.8 154.337 308.8 155C308.8 155.663 309.337 156.2 310 156.2Z" fill="white"/>
<path opacity="0.2" d="M330 181C330.552 181 331 180.552 331 180C331 179.448 330.552 179 330 179C329.448 179 329 179.448 329 180C329 180.552 329.448 181 330 181Z" fill="white"/>
<path opacity="0.2" d="M120 136.5C120.828 136.5 121.5 135.828 121.5 135C121.5 134.172 120.828 133.5 120 133.5C119.172 133.5 118.5 134.172 118.5 135C118.5 135.828 119.172 136.5 120 136.5Z" fill="white"/>
<path opacity="0.2" d="M140 121.3C140.718 121.3 141.3 120.718 141.3 120C141.3 119.282 140.718 118.7 140 118.7C139.282 118.7 138.7 119.282 138.7 120C138.7 120.718 139.282 121.3 140 121.3Z" fill="white"/>
<path opacity="0.2" d="M160 146.1C160.607 146.1 161.1 145.607 161.1 145C161.1 144.392 160.607 143.9 160 143.9C159.392 143.9 158.9 144.392 158.9 145C158.9 145.607 159.392 146.1 160 146.1Z" fill="white"/>
<path opacity="0.2" d="M180 131.4C180.773 131.4 181.4 130.773 181.4 130C181.4 129.227 180.773 128.6 180 128.6C179.227 128.6 178.6 129.227 178.6 130C178.6 130.773 179.227 131.4 180 131.4Z" fill="white"/>
<path opacity="0.2" d="M200 156.2C200.663 156.2 201.2 155.663 201.2 155C201.2 154.337 200.663 153.8 200 153.8C199.337 153.8 198.8 154.337 198.8 155C198.8 155.663 199.337 156.2 200 156.2Z" fill="white"/>
<path opacity="0.2" d="M220 141C220.552 141 221 140.552 221 140C221 139.448 220.552 139 220 139C219.448 139 219 139.448 219 140C219 140.552 219.448 141 220 141Z" fill="white"/>
<path opacity="0.2" d="M240 166.3C240.718 166.3 241.3 165.718 241.3 165C241.3 164.282 240.718 163.7 240 163.7C239.282 163.7 238.7 164.282 238.7 165C238.7 165.718 239.282 166.3 240 166.3Z" fill="white"/>
<path opacity="0.2" d="M260 151.1C260.607 151.1 261.1 150.607 261.1 150C261.1 149.392 260.607 148.9 260 148.9C259.392 148.9 258.9 149.392 258.9 150C258.9 150.607 259.392 151.1 260 151.1Z" fill="white"/>
<path opacity="0.2" d="M280 176.4C280.773 176.4 281.4 175.773 281.4 175C281.4 174.227 280.773 173.6 280 173.6C279.227 173.6 278.6 174.227 278.6 175C278.6 175.773 279.227 176.4 280 176.4Z" fill="white"/>
<path opacity="0.2" d="M300 161.2C300.663 161.2 301.2 160.663 301.2 160C301.2 159.337 300.663 158.8 300 158.8C299.337 158.8 298.8 159.337 298.8 160C298.8 160.663 299.337 161.2 300 161.2Z" fill="white"/>
<path opacity="0.2" d="M130 81C130.552 81 131 80.5523 131 80C131 79.4477 130.552 79 130 79C129.448 79 129 79.4477 129 80C129 80.5523 129.448 81 130 81Z" fill="white"/>
<path opacity="0.2" d="M160 96.3002C160.718 96.3002 161.3 95.7182 161.3 95.0002C161.3 94.2822 160.718 93.7002 160 93.7002C159.282 93.7002 158.7 94.2822 158.7 95.0002C158.7 95.7182 159.282 96.3002 160 96.3002Z" fill="white"/>
<path opacity="0.2" d="M190 76.0999C190.607 76.0999 191.1 75.6074 191.1 74.9999C191.1 74.3924 190.607 73.8999 190 73.8999C189.392 73.8999 188.9 74.3924 188.9 74.9999C188.9 75.6074 189.392 76.0999 190 76.0999Z" fill="white"/>
<path opacity="0.2" d="M220 91.4001C220.773 91.4001 221.4 90.7733 221.4 90.0001C221.4 89.2269 220.773 88.6001 220 88.6001C219.227 88.6001 218.6 89.2269 218.6 90.0001C218.6 90.7733 219.227 91.4001 220 91.4001Z" fill="white"/>
<path opacity="0.2" d="M250 71.1998C250.663 71.1998 251.2 70.6625 251.2 69.9998C251.2 69.3371 250.663 68.7998 250 68.7998C249.337 68.7998 248.8 69.3371 248.8 69.9998C248.8 70.6625 249.337 71.1998 250 71.1998Z" fill="white"/>
<path opacity="0.2" d="M280 86C280.552 86 281 85.5523 281 85C281 84.4477 280.552 84 280 84C279.448 84 279 84.4477 279 85C279 85.5523 279.448 86 280 86Z" fill="white"/>
<path opacity="0.2" d="M310 66.5C310.828 66.5 311.5 65.8284 311.5 65C311.5 64.1716 310.828 63.5 310 63.5C309.172 63.5 308.5 64.1716 308.5 65C308.5 65.8284 309.172 66.5 310 66.5Z" fill="white"/>
<path opacity="0.2" d="M340 81.3002C340.718 81.3002 341.3 80.7182 341.3 80.0002C341.3 79.2822 340.718 78.7002 340 78.7002C339.282 78.7002 338.7 79.2822 338.7 80.0002C338.7 80.7182 339.282 81.3002 340 81.3002Z" fill="white"/>
<path opacity="0.2" d="M180 102.8C181.547 102.8 182.8 101.547 182.8 100C182.8 98.4538 181.547 97.2002 180 97.2002C178.454 97.2002 177.2 98.4538 177.2 100C177.2 101.547 178.454 102.8 180 102.8Z" fill="white"/>
<path opacity="0.2" d="M180 108C184.418 108 188 104.418 188 100C188 95.5817 184.418 92 180 92C175.582 92 172 95.5817 172 100C172 104.418 175.582 108 180 108Z" fill="url(#paint0_radial_15423_35745)"/>
<path opacity="0.2" d="M240 143C241.657 143 243 141.657 243 140C243 138.343 241.657 137 240 137C238.343 137 237 138.343 237 140C237 141.657 238.343 143 240 143Z" fill="white"/>
<path opacity="0.2" d="M240 149C244.971 149 249 144.971 249 140C249 135.029 244.971 131 240 131C235.029 131 231 135.029 231 140C231 144.971 235.029 149 240 149Z" fill="url(#paint1_radial_15423_35745)"/>
<path opacity="0.2" d="M280 112.5C281.381 112.5 282.5 111.381 282.5 110C282.5 108.619 281.381 107.5 280 107.5C278.619 107.5 277.5 108.619 277.5 110C277.5 111.381 278.619 112.5 280 112.5Z" fill="white"/>
<path opacity="0.2" d="M280 117C283.866 117 287 113.866 287 110C287 106.134 283.866 103 280 103C276.134 103 273 106.134 273 110C273 113.866 276.134 117 280 117Z" fill="url(#paint2_radial_15423_35745)"/>
<path opacity="0.2" d="M150 152.7C151.491 152.7 152.7 151.491 152.7 150C152.7 148.509 151.491 147.3 150 147.3C148.509 147.3 147.3 148.509 147.3 150C147.3 151.491 148.509 152.7 150 152.7Z" fill="white"/>
<path opacity="0.2" d="M150 158C154.418 158 158 154.418 158 150C158 145.582 154.418 142 150 142C145.582 142 142 145.582 142 150C142 154.418 145.582 158 150 158Z" fill="url(#paint3_radial_15423_35745)"/>
<path opacity="0.2" d="M310 162.9C311.602 162.9 312.9 161.602 312.9 160C312.9 158.398 311.602 157.1 310 157.1C308.398 157.1 307.1 158.398 307.1 160C307.1 161.602 308.398 162.9 310 162.9Z" fill="white"/>
<path opacity="0.2" d="M310 169C314.971 169 319 164.971 319 160C319 155.029 314.971 151 310 151C305.029 151 301 155.029 301 160C301 164.971 305.029 169 310 169Z" fill="url(#paint4_radial_15423_35745)"/>
<path opacity="0.2" d="M180 100L190 90" stroke="white" stroke-width="0.5"/>
<path opacity="0.2" d="M180 100L170 90" stroke="white" stroke-width="0.5"/>
<path opacity="0.2" d="M180 100L190 110" stroke="white" stroke-width="0.5"/>
<path opacity="0.2" d="M180 100L170 110" stroke="white" stroke-width="0.5"/>
<path opacity="0.2" d="M240 140L250 130" stroke="white" stroke-width="0.5"/>
<path opacity="0.2" d="M240 140L230 130" stroke="white" stroke-width="0.5"/>
<path opacity="0.2" d="M240 140L250 150" stroke="white" stroke-width="0.5"/>
<path opacity="0.2" d="M240 140L230 150" stroke="white" stroke-width="0.5"/>
<defs>
<radialGradient id="paint0_radial_15423_35745" cx="0" cy="0" r="1" gradientUnits="userSpaceOnUse" gradientTransform="translate(972 892) scale(800)">
<stop stop-color="white" stop-opacity="0.9"/>
<stop offset="1" stop-color="white" stop-opacity="0"/>
</radialGradient>
<radialGradient id="paint1_radial_15423_35745" cx="0" cy="0" r="1" gradientUnits="userSpaceOnUse" gradientTransform="translate(1131 1031) scale(900)">
<stop stop-color="white" stop-opacity="0.9"/>
<stop offset="1" stop-color="white" stop-opacity="0"/>
</radialGradient>
<radialGradient id="paint2_radial_15423_35745" cx="0" cy="0" r="1" gradientUnits="userSpaceOnUse" gradientTransform="translate(973 803) scale(700)">
<stop stop-color="white" stop-opacity="0.9"/>
<stop offset="1" stop-color="white" stop-opacity="0"/>
</radialGradient>
<radialGradient id="paint3_radial_15423_35745" cx="0" cy="0" r="1" gradientUnits="userSpaceOnUse" gradientTransform="translate(942 942) scale(800)">
<stop stop-color="white" stop-opacity="0.9"/>
<stop offset="1" stop-color="white" stop-opacity="0"/>
</radialGradient>
<radialGradient id="paint4_radial_15423_35745" cx="0" cy="0" r="1" gradientUnits="userSpaceOnUse" gradientTransform="translate(1201 1051) scale(900)">
<stop stop-color="white" stop-opacity="0.9"/>
<stop offset="1" stop-color="white" stop-opacity="0"/>
</radialGradient>
</defs>
</svg>
