<svg width="450" height="280" viewBox="0 0 450 280" fill="none" xmlns="http://www.w3.org/2000/svg">
<path opacity="0.1" d="M130 96.1998C130.663 96.1998 131.2 95.6625 131.2 94.9998C131.2 94.3371 130.663 93.7998 130 93.7998C129.337 93.7998 128.8 94.3371 128.8 94.9998C128.8 95.6625 129.337 96.1998 130 96.1998Z" fill="#E6E6FA"/>
<path opacity="0.1" d="M155 111C155.552 111 156 110.552 156 110C156 109.448 155.552 109 155 109C154.448 109 154 109.448 154 110C154 110.552 154.448 111 155 111Z" fill="#E6E6FA"/>
<path opacity="0.1" d="M180 126.5C180.828 126.5 181.5 125.828 181.5 125C181.5 124.172 180.828 123.5 180 123.5C179.172 123.5 178.5 124.172 178.5 125C178.5 125.828 179.172 126.5 180 126.5Z" fill="#E6E6FA"/>
<path opacity="0.1" d="M205 141.3C205.718 141.3 206.3 140.718 206.3 140C206.3 139.282 205.718 138.7 205 138.7C204.282 138.7 203.7 139.282 203.7 140C203.7 140.718 204.282 141.3 205 141.3Z" fill="#E6E6FA"/>
<path opacity="0.1" d="M230 91.1004C230.607 91.1004 231.1 90.6079 231.1 90.0004C231.1 89.3929 230.607 88.9004 230 88.9004C229.392 88.9004 228.9 89.3929 228.9 90.0004C228.9 90.6079 229.392 91.1004 230 91.1004Z" fill="#E6E6FA"/>
<path opacity="0.1" d="M255 106.4C255.773 106.4 256.4 105.773 256.4 105C256.4 104.226 255.773 103.6 255 103.6C254.227 103.6 253.6 104.226 253.6 105C253.6 105.773 254.227 106.4 255 106.4Z" fill="#E6E6FA"/>
<path opacity="0.1" d="M280 121.2C280.663 121.2 281.2 120.663 281.2 120C281.2 119.337 280.663 118.8 280 118.8C279.337 118.8 278.8 119.337 278.8 120C278.8 120.663 279.337 121.2 280 121.2Z" fill="#E6E6FA"/>
<path opacity="0.1" d="M305 136C305.552 136 306 135.552 306 135C306 134.448 305.552 134 305 134C304.448 134 304 134.448 304 135C304 135.552 304.448 136 305 136Z" fill="#E6E6FA"/>
<path opacity="0.1" d="M330 86.3002C330.718 86.3002 331.3 85.7182 331.3 85.0002C331.3 84.2822 330.718 83.7002 330 83.7002C329.282 83.7002 328.7 84.2822 328.7 85.0002C328.7 85.7182 329.282 86.3002 330 86.3002Z" fill="#E6E6FA"/>
<path opacity="0.1" d="M355 101.1C355.607 101.1 356.1 100.608 356.1 100C356.1 99.3929 355.607 98.9004 355 98.9004C354.392 98.9004 353.9 99.3929 353.9 100C353.9 100.608 354.392 101.1 355 101.1Z" fill="#E6E6FA"/>
<path opacity="0.1" d="M135 116.4C135.773 116.4 136.4 115.773 136.4 115C136.4 114.226 135.773 113.6 135 113.6C134.227 113.6 133.6 114.226 133.6 115C133.6 115.773 134.227 116.4 135 116.4Z" fill="#E6E6FA"/>
<path opacity="0.1" d="M160 131.2C160.663 131.2 161.2 130.663 161.2 130C161.2 129.337 160.663 128.8 160 128.8C159.337 128.8 158.8 129.337 158.8 130C158.8 130.663 159.337 131.2 160 131.2Z" fill="#E6E6FA"/>
<path opacity="0.1" d="M185 81C185.552 81 186 80.5523 186 80C186 79.4477 185.552 79 185 79C184.448 79 184 79.4477 184 80C184 80.5523 184.448 81 185 81Z" fill="#E6E6FA"/>
<path opacity="0.1" d="M210 96.5C210.828 96.5 211.5 95.8284 211.5 95C211.5 94.1716 210.828 93.5 210 93.5C209.172 93.5 208.5 94.1716 208.5 95C208.5 95.8284 209.172 96.5 210 96.5Z" fill="#E6E6FA"/>
<path opacity="0.1" d="M235 111.3C235.718 111.3 236.3 110.718 236.3 110C236.3 109.282 235.718 108.7 235 108.7C234.282 108.7 233.7 109.282 233.7 110C233.7 110.718 234.282 111.3 235 111.3Z" fill="#E6E6FA"/>
<path opacity="0.1" d="M260 126.1C260.607 126.1 261.1 125.608 261.1 125C261.1 124.393 260.607 123.9 260 123.9C259.392 123.9 258.9 124.393 258.9 125C258.9 125.608 259.392 126.1 260 126.1Z" fill="#E6E6FA"/>
<path opacity="0.1" d="M285 76.3996C285.773 76.3996 286.4 75.7728 286.4 74.9996C286.4 74.2264 285.773 73.5996 285 73.5996C284.227 73.5996 283.6 74.2264 283.6 74.9996C283.6 75.7728 284.227 76.3996 285 76.3996Z" fill="#E6E6FA"/>
<path opacity="0.1" d="M310 91.1998C310.663 91.1998 311.2 90.6625 311.2 89.9998C311.2 89.3371 310.663 88.7998 310 88.7998C309.337 88.7998 308.8 89.3371 308.8 89.9998C308.8 90.6625 309.337 91.1998 310 91.1998Z" fill="#E6E6FA"/>
<path opacity="0.1" d="M335 106C335.552 106 336 105.552 336 105C336 104.448 335.552 104 335 104C334.448 104 334 104.448 334 105C334 105.552 334.448 106 335 106Z" fill="#E6E6FA"/>
<path opacity="0.1" d="M360 121.3C360.718 121.3 361.3 120.718 361.3 120C361.3 119.282 360.718 118.7 360 118.7C359.282 118.7 358.7 119.282 358.7 120C358.7 120.718 359.282 121.3 360 121.3Z" fill="#E6E6FA"/>
<path opacity="0.1" d="M140 136.1C140.607 136.1 141.1 135.608 141.1 135C141.1 134.393 140.607 133.9 140 133.9C139.392 133.9 138.9 134.393 138.9 135C138.9 135.608 139.392 136.1 140 136.1Z" fill="#E6E6FA"/>
<path opacity="0.1" d="M165 86.3996C165.773 86.3996 166.4 85.7728 166.4 84.9996C166.4 84.2264 165.773 83.5996 165 83.5996C164.227 83.5996 163.6 84.2264 163.6 84.9996C163.6 85.7728 164.227 86.3996 165 86.3996Z" fill="#E6E6FA"/>
<path opacity="0.1" d="M190 101.2C190.663 101.2 191.2 100.663 191.2 99.9998C191.2 99.3371 190.663 98.7998 190 98.7998C189.337 98.7998 188.8 99.3371 188.8 99.9998C188.8 100.663 189.337 101.2 190 101.2Z" fill="#E6E6FA"/>
<path opacity="0.1" d="M215 116C215.552 116 216 115.552 216 115C216 114.448 215.552 114 215 114C214.448 114 214 114.448 214 115C214 115.552 214.448 116 215 116Z" fill="#E6E6FA"/>
<path opacity="0.1" d="M240 131.5C240.828 131.5 241.5 130.828 241.5 130C241.5 129.172 240.828 128.5 240 128.5C239.172 128.5 238.5 129.172 238.5 130C238.5 130.828 239.172 131.5 240 131.5Z" fill="#E6E6FA"/>
<path opacity="0.1" d="M265 81.3002C265.718 81.3002 266.3 80.7182 266.3 80.0002C266.3 79.2822 265.718 78.7002 265 78.7002C264.282 78.7002 263.7 79.2822 263.7 80.0002C263.7 80.7182 264.282 81.3002 265 81.3002Z" fill="#E6E6FA"/>
<path opacity="0.1" d="M290 96.1004C290.607 96.1004 291.1 95.6079 291.1 95.0004C291.1 94.3929 290.607 93.9004 290 93.9004C289.392 93.9004 288.9 94.3929 288.9 95.0004C288.9 95.6079 289.392 96.1004 290 96.1004Z" fill="#E6E6FA"/>
<path opacity="0.1" d="M315 111.4C315.773 111.4 316.4 110.773 316.4 110C316.4 109.226 315.773 108.6 315 108.6C314.227 108.6 313.6 109.226 313.6 110C313.6 110.773 314.227 111.4 315 111.4Z" fill="#E6E6FA"/>
<path opacity="0.1" d="M340 126.2C340.663 126.2 341.2 125.663 341.2 125C341.2 124.337 340.663 123.8 340 123.8C339.337 123.8 338.8 124.337 338.8 125C338.8 125.663 339.337 126.2 340 126.2Z" fill="#E6E6FA"/>
<path opacity="0.1" d="M365 76C365.552 76 366 75.5523 366 75C366 74.4477 365.552 74 365 74C364.448 74 364 74.4477 364 75C364 75.5523 364.448 76 365 76Z" fill="#E6E6FA"/>
<path opacity="0.1" d="M145 91.3002C145.718 91.3002 146.3 90.7182 146.3 90.0002C146.3 89.2822 145.718 88.7002 145 88.7002C144.282 88.7002 143.7 89.2822 143.7 90.0002C143.7 90.7182 144.282 91.3002 145 91.3002Z" fill="#E6E6FA"/>
<path opacity="0.1" d="M170 106.1C170.607 106.1 171.1 105.608 171.1 105C171.1 104.393 170.607 103.9 170 103.9C169.392 103.9 168.9 104.393 168.9 105C168.9 105.608 169.392 106.1 170 106.1Z" fill="#E6E6FA"/>
<path opacity="0.1" d="M195 121.4C195.773 121.4 196.4 120.773 196.4 120C196.4 119.226 195.773 118.6 195 118.6C194.227 118.6 193.6 119.226 193.6 120C193.6 120.773 194.227 121.4 195 121.4Z" fill="#E6E6FA"/>
<path opacity="0.1" d="M220 71.1998C220.663 71.1998 221.2 70.6625 221.2 69.9998C221.2 69.3371 220.663 68.7998 220 68.7998C219.337 68.7998 218.8 69.3371 218.8 69.9998C218.8 70.6625 219.337 71.1998 220 71.1998Z" fill="#E6E6FA"/>
<path opacity="0.1" d="M245 86C245.552 86 246 85.5523 246 85C246 84.4477 245.552 84 245 84C244.448 84 244 84.4477 244 85C244 85.5523 244.448 86 245 86Z" fill="#E6E6FA"/>
<path opacity="0.1" d="M270 101.5C270.828 101.5 271.5 100.828 271.5 100C271.5 99.1716 270.828 98.5 270 98.5C269.172 98.5 268.5 99.1716 268.5 100C268.5 100.828 269.172 101.5 270 101.5Z" fill="#E6E6FA"/>
<path opacity="0.1" d="M295 116.3C295.718 116.3 296.3 115.718 296.3 115C296.3 114.282 295.718 113.7 295 113.7C294.282 113.7 293.7 114.282 293.7 115C293.7 115.718 294.282 116.3 295 116.3Z" fill="#E6E6FA"/>
<path opacity="0.1" d="M320 131.1C320.607 131.1 321.1 130.608 321.1 130C321.1 129.393 320.607 128.9 320 128.9C319.392 128.9 318.9 129.393 318.9 130C318.9 130.608 319.392 131.1 320 131.1Z" fill="#E6E6FA"/>
<path opacity="0.1" d="M345 81.3996C345.773 81.3996 346.4 80.7728 346.4 79.9996C346.4 79.2264 345.773 78.5996 345 78.5996C344.227 78.5996 343.6 79.2264 343.6 79.9996C343.6 80.7728 344.227 81.3996 345 81.3996Z" fill="#E6E6FA"/>
<path opacity="0.1" d="M370 96.1998C370.663 96.1998 371.2 95.6625 371.2 94.9998C371.2 94.3371 370.663 93.7998 370 93.7998C369.337 93.7998 368.8 94.3371 368.8 94.9998C368.8 95.6625 369.337 96.1998 370 96.1998Z" fill="#E6E6FA"/>
<path opacity="0.1" d="M150 111C150.552 111 151 110.552 151 110C151 109.448 150.552 109 150 109C149.448 109 149 109.448 149 110C149 110.552 149.448 111 150 111Z" fill="#E6E6FA"/>
<path opacity="0.1" d="M175 126.5C175.828 126.5 176.5 125.828 176.5 125C176.5 124.172 175.828 123.5 175 123.5C174.172 123.5 173.5 124.172 173.5 125C173.5 125.828 174.172 126.5 175 126.5Z" fill="#E6E6FA"/>
<path opacity="0.1" d="M200 76.3002C200.718 76.3002 201.3 75.7182 201.3 75.0002C201.3 74.2822 200.718 73.7002 200 73.7002C199.282 73.7002 198.7 74.2822 198.7 75.0002C198.7 75.7182 199.282 76.3002 200 76.3002Z" fill="#E6E6FA"/>
<path opacity="0.1" d="M225 91.1004C225.607 91.1004 226.1 90.6079 226.1 90.0004C226.1 89.3929 225.607 88.9004 225 88.9004C224.392 88.9004 223.9 89.3929 223.9 90.0004C223.9 90.6079 224.392 91.1004 225 91.1004Z" fill="#E6E6FA"/>
<path opacity="0.1" d="M250 106.4C250.773 106.4 251.4 105.773 251.4 105C251.4 104.226 250.773 103.6 250 103.6C249.227 103.6 248.6 104.226 248.6 105C248.6 105.773 249.227 106.4 250 106.4Z" fill="#E6E6FA"/>
<path opacity="0.1" d="M275 121.2C275.663 121.2 276.2 120.663 276.2 120C276.2 119.337 275.663 118.8 275 118.8C274.337 118.8 273.8 119.337 273.8 120C273.8 120.663 274.337 121.2 275 121.2Z" fill="#E6E6FA"/>
<path opacity="0.1" d="M300 71C300.552 71 301 70.5523 301 70C301 69.4477 300.552 69 300 69C299.448 69 299 69.4477 299 70C299 70.5523 299.448 71 300 71Z" fill="#E6E6FA"/>
<path opacity="0.1" d="M325 86.3002C325.718 86.3002 326.3 85.7182 326.3 85.0002C326.3 84.2822 325.718 83.7002 325 83.7002C324.282 83.7002 323.7 84.2822 323.7 85.0002C323.7 85.7182 324.282 86.3002 325 86.3002Z" fill="#E6E6FA"/>
<path opacity="0.1" d="M200 133C201.657 133 203 131.657 203 130C203 128.343 201.657 127 200 127C198.343 127 197 128.343 197 130C197 131.657 198.343 133 200 133Z" fill="white"/>
<path opacity="0.1" d="M200 142C206.627 142 212 136.627 212 130C212 123.373 206.627 118 200 118C193.373 118 188 123.373 188 130C188 136.627 193.373 142 200 142Z" fill="url(#paint0_radial_15423_35856)"/>
<path opacity="0.1" d="M300 152.7C301.491 152.7 302.7 151.491 302.7 150C302.7 148.509 301.491 147.3 300 147.3C298.509 147.3 297.3 148.509 297.3 150C297.3 151.491 298.509 152.7 300 152.7Z" fill="white"/>
<path opacity="0.1" d="M300 160C305.523 160 310 155.523 310 150C310 144.477 305.523 140 300 140C294.477 140 290 144.477 290 150C290 155.523 294.477 160 300 160Z" fill="url(#paint1_radial_15423_35856)"/>
<path opacity="0.1" d="M250 103.2C251.767 103.2 253.2 101.767 253.2 99.9998C253.2 98.2325 251.767 96.7998 250 96.7998C248.232 96.7998 246.8 98.2325 246.8 99.9998C246.8 101.767 248.232 103.2 250 103.2Z" fill="white"/>
<path opacity="0.1" d="M250 114C257.732 114 264 107.732 264 100C264 92.268 257.732 86 250 86C242.268 86 236 92.268 236 100C236 107.732 242.268 114 250 114Z" fill="url(#paint2_radial_15423_35856)"/>
<path opacity="0.1" d="M150 152.5C151.381 152.5 152.5 151.381 152.5 150C152.5 148.619 151.381 147.5 150 147.5C148.619 147.5 147.5 148.619 147.5 150C147.5 151.381 148.619 152.5 150 152.5Z" fill="white"/>
<path opacity="0.1" d="M150 159C154.971 159 159 154.971 159 150C159 145.029 154.971 141 150 141C145.029 141 141 145.029 141 150C141 154.971 145.029 159 150 159Z" fill="url(#paint3_radial_15423_35856)"/>
<path opacity="0.1" d="M350 112.8C351.547 112.8 352.8 111.547 352.8 110C352.8 108.454 351.547 107.2 350 107.2C348.454 107.2 347.2 108.454 347.2 110C347.2 111.547 348.454 112.8 350 112.8Z" fill="white"/>
<path opacity="0.1" d="M350 121C356.075 121 361 116.075 361 110C361 103.925 356.075 99 350 99C343.925 99 339 103.925 339 110C339 116.075 343.925 121 350 121Z" fill="url(#paint4_radial_15423_35856)"/>
<path opacity="0.1" d="M180 100C206.667 120 233.333 123.333 260 110C286.667 96.6667 310 100 330 120" stroke="#B28DFF" stroke-width="3"/>
<path opacity="0.1" d="M150 140C176.667 126.667 206.667 126.667 240 140C273.333 153.333 293.333 150 300 130" stroke="#B28DFF" stroke-width="2"/>
<path opacity="0.1" d="M230 80C250 93.3333 270 96.6667 290 90C310 83.3333 326.667 86.6667 340 100" stroke="#B28DFF" stroke-width="3"/>
<defs>
<radialGradient id="paint0_radial_15423_35856" cx="0" cy="0" r="1" gradientUnits="userSpaceOnUse" gradientTransform="translate(1388 1318) scale(1200)">
<stop stop-color="#E6E6FA" stop-opacity="0.8"/>
<stop offset="1" stop-color="#E6E6FA" stop-opacity="0"/>
</radialGradient>
<radialGradient id="paint1_radial_15423_35856" cx="0" cy="0" r="1" gradientUnits="userSpaceOnUse" gradientTransform="translate(1290 1140) scale(1000)">
<stop stop-color="#E6E6FA" stop-opacity="0.8"/>
<stop offset="1" stop-color="#E6E6FA" stop-opacity="0"/>
</radialGradient>
<radialGradient id="paint2_radial_15423_35856" cx="0" cy="0" r="1" gradientUnits="userSpaceOnUse" gradientTransform="translate(1636 1486) scale(1400)">
<stop stop-color="#E6E6FA" stop-opacity="0.8"/>
<stop offset="1" stop-color="#E6E6FA" stop-opacity="0"/>
</radialGradient>
<radialGradient id="paint3_radial_15423_35856" cx="0" cy="0" r="1" gradientUnits="userSpaceOnUse" gradientTransform="translate(1041 1041) scale(900)">
<stop stop-color="#E6E6FA" stop-opacity="0.8"/>
<stop offset="1" stop-color="#E6E6FA" stop-opacity="0"/>
</radialGradient>
<radialGradient id="paint4_radial_15423_35856" cx="0" cy="0" r="1" gradientUnits="userSpaceOnUse" gradientTransform="translate(1439 1199) scale(1100)">
<stop stop-color="#E6E6FA" stop-opacity="0.8"/>
<stop offset="1" stop-color="#E6E6FA" stop-opacity="0"/>
</radialGradient>
</defs>
</svg>
