<?xml version="1.0" encoding="UTF-8" standalone="no"?>
<svg width="100" height="100" viewBox="0 0 100 100" xmlns="http://www.w3.org/2000/svg">
  <g transform="translate(50, 50)">
    <!-- Основной контур астероида высокого уровня - более сложная и угловатая форма -->
    <path d="M -28 0 L -25 -12 L -18 -20 L -8 -28 L 5 -25 L 15 -18 L 25 -8 L 28 5 L 20 15 L 10 25 L -5 28 L -15 20 L -25 10 Z" 
          fill="#4B0082" stroke="purple" stroke-width="2" />
    
    <!-- ASCII-стиль декоративные элементы -->
    <line x1="-20" y1="0" x2="20" y2="0" stroke="purple" stroke-width="1.5" />
    <line x1="0" y1="-20" x2="0" y2="20" stroke="purple" stroke-width="1.5" />
    <line x1="-15" y1="-15" x2="15" y2="15" stroke="purple" stroke-width="1" />
    <line x1="-15" y1="15" x2="15" y2="-15" stroke="purple" stroke-width="1" />
    
    <!-- Кристаллические вставки и детали -->
    <path d="M -10 -12 L -5 -18 L 0 -12 L -5 -8 Z" fill="#9370DB" stroke="purple" stroke-width="0.5" />
    <path d="M 12 8 L 18 10 L 15 15 L 10 12 Z" fill="#9370DB" stroke="purple" stroke-width="0.5" />
    <path d="M -15 5 L -10 10 L -15 15 L -18 8 Z" fill="#9370DB" stroke="purple" stroke-width="0.5" />
    
    <!-- Кратеры -->
    <circle cx="-12" cy="-5" r="4" fill="#2A0045" stroke="purple" stroke-width="0.5" />
    <circle cx="14" cy="3" r="5" fill="#2A0045" stroke="purple" stroke-width="0.5" />
    <circle cx="-3" cy="16" r="3.5" fill="#2A0045" stroke="purple" stroke-width="0.5" />
    <circle cx="8" cy="-14" r="4" fill="#2A0045" stroke="purple" stroke-width="0.5" />
    <circle cx="0" cy="0" r="6" fill="#2A0045" stroke="purple" stroke-width="0.5" />
    
    <!-- Индикатор уровня - высокий -->
    <text x="0" y="0" font-family="Courier New" font-size="12" fill="white" text-anchor="middle">***</text>
  </g>
</svg> 